<svg xmlns="http://www.w3.org/2000/svg" xml:space="preserve" width="5960" height="5960" style="shape-rendering:geometricPrecision;text-rendering:geometricPrecision;image-rendering:optimizeQuality;fill-rule:evenodd;clip-rule:evenodd" viewBox="0 0 5359 5359">
    <path style="fill:#2476d9" d="M0 0h5359v5359H0z"/>
    <path d="M3032 2824c-15 4-24 11-40 16-30 8-5 48-70 103-24 21-46 32-79 37-26 4-20-4-38 16-92 102-192 156-319 198-58 19-146 26-206 24-33-1-72-5-104-11-30-6-62-19-90-23-28-5-59 16-83 28-33 15-220 107-234 111 11-57 33-116 50-172 6-23 23-67 23-88 0-30-25-47-43-67-167-184-214-446-127-677 130-340 508-514 862-391 98 34 197 102 267 178 32 35 71 86 93 128 24 45 21 29 64 47 27 11 55 23 83 31-53-179-186-331-345-425-191-112-423-133-634-69-176 54-333 182-429 339-110 182-144 425-75 627 27 78 78 188 134 250 16 18 34 31 33 58 0 22-15 53-21 75-13 49-29 101-44 149-11 36-46 117-15 147 36 34 103-12 139-29 44-21 87-42 130-63 44-21 89-40 131-63 26-15 40-15 69-8 87 24 169 32 261 23 291-29 557-222 657-499zm-29-752c0 2 44 78 47 82 20 5 41-1 62-2 77-2 113 3 190 22 58 14 140 54 188 91 115 89 194 188 229 332 41 164 21 309-63 455-15 27-37 58-57 81-19 23-59 53-56 84 5 43 55 170 61 223-24-8-78-35-102-49-32-17-69-34-102-49-61-28-44-30-113-16-45 10-86 18-132 19-93 1-167-13-251-49-25-10-77-37-97-52-11-9-12-6-23 2-8 5-15 10-23 15-14 9-35 18-47 29 32 36 110 76 154 95 126 56 293 72 427 36 48-12 52 1 93 20 28 13 57 28 85 41 56 28 113 54 168 82 28 15 69 25 85-13 11-29-7-71-16-100-9-32-19-64-28-97-45-158-48-111 1-174 20-26 36-47 53-74 148-239 131-540-34-765-137-186-359-294-589-284-20 1-96 7-110 15zm-367 253c-138 8-273 61-382 145-32 26-84 60-46 106 15 19 41 24 62 13 13-8 34-30 49-40 219-165 504-168 723 0 13 10 36 33 48 40 51 27 99-37 62-78-43-50-152-114-214-138-101-39-194-55-302-48zm-1 202c-67 7-130 26-189 59-27 15-49 32-74 50-27 20-45 55-19 84 47 52 89-25 163-56 68-28 136-46 210-35 195 29 197 129 263 104 34-13 39-57 15-83-30-33-112-79-155-94-70-24-140-38-214-29zm17 204c-53 6-67 13-113 36-96 49-48 115-4 115 38 0 66-64 172-49 21 2 38 8 57 18 15 8 30 22 46 28 42 17 82-34 60-73-12-22-65-49-89-59-34-15-92-20-129-16z" style="fill:#fcfffc"/>
</svg>
