<svg xmlns="http://www.w3.org/2000/svg" xml:space="preserve" width="3280" height="3280" style="shape-rendering:geometricPrecision;text-rendering:geometricPrecision;image-rendering:optimizeQuality;fill-rule:evenodd;clip-rule:evenodd" viewBox="0 0 2725 2725">
    <defs>
        <style>
            .fil1{fill:#fcfffc}
        </style>
    </defs>
    <g id="Layer_x0020_1">
        <path style="fill:#2476d9" d="M0 0h2725v2725H0z"/>
        <path class="fil1" d="M1322 1034c-127 8-252 57-352 135-30 24-78 55-44 98 14 17 39 22 58 11 12-6 32-27 45-36 203-153 466-155 668 0 12 9 34 30 45 36 47 26 91-33 57-72-40-45-141-104-198-127-93-36-179-51-279-45zm-1 187c-62 7-120 24-174 55-26 14-45 29-69 46-25 19-41 51-17 78 43 48 82-23 150-52 63-26 126-42 194-32 180 26 182 119 243 96 32-13 36-53 15-77-28-30-104-73-144-86-65-23-129-36-198-28zm16 189c-49 5-62 12-105 33-88 45-43 107-3 107 35-1 61-59 159-46 19 2 35 7 52 17 15 7 28 20 43 26 39 15 76-32 56-68-12-20-61-45-83-54-32-14-85-19-119-15z"/>
        <path d="M1661 801c0 2 40 72 44 76 19 4 37-1 57-2 71-2 104 2 175 20 55 14 130 50 174 85 106 82 179 174 212 306 38 152 20 285-58 421-14 24-35 53-53 75-17 20-55 49-52 77 5 40 51 157 57 206-23-7-73-33-95-45-29-16-63-31-94-45-57-27-40-29-104-15-42 9-80 17-123 17-85 1-153-12-231-45-23-9-71-34-90-48-10-8-11-5-21 1-7 5-14 10-21 14-13 9-33 17-44 28 29 33 102 69 143 88 116 51 270 66 394 33 45-12 48 0 86 18 26 12 53 25 79 38 51 25 104 49 154 76 27 13 65 22 79-12 11-27-7-66-15-93-8-29-17-59-26-89-41-146-44-103 2-162 18-23 33-42 49-68 137-220 121-498-32-706-126-172-332-272-544-263-18 1-89 6-102 14z" style="fill:#fafafa"/>
        <path class="fil1" d="M1688 1496c-14 4-22 10-37 14-28 8-5 45-64 96-23 20-43 29-73 34-24 3-19-3-36 15-84 94-177 144-295 183-53 18-134 24-190 22-30-1-66-4-96-10-28-6-57-17-83-22-26-4-55 16-77 26-30 14-203 99-216 103 11-53 31-107 46-159 6-21 21-62 21-81 1-28-23-44-40-63-153-169-197-412-116-625 119-314 469-475 796-361 90 32 182 94 246 164 30 33 66 80 87 119 21 42 19 26 59 43 25 10 50 21 76 29-49-165-172-306-319-393-176-103-390-123-585-63-163 49-308 168-396 313-102 167-134 392-70 579 25 72 72 174 124 231 15 16 31 28 31 53-1 21-14 49-20 70-12 45-27 93-40 137-11 34-43 109-14 136 33 31 94-11 128-27 40-19 80-38 120-58 41-19 82-37 121-58 24-13 37-14 64-7 81 21 156 30 241 21 268-27 515-205 607-461z"/>
    </g>
</svg>
